<svg id="my-svg" width="100%" xmlns="http://www.w3.org/2000/svg" xmlns:xlink="http://www.w3.org/1999/xlink" style="max-width: 1800px; background-color: white;" viewBox="0 0 1800 900" role="graphics-document document" aria-roledescription="xychart"><style>#my-svg{font-family:"trebuchet ms",verdana,arial,sans-serif;font-size:16px;fill:#333;}@keyframes edge-animation-frame{from{stroke-dashoffset:0;}}@keyframes dash{to{stroke-dashoffset:0;}}#my-svg .edge-animation-slow{stroke-dasharray:9,5!important;stroke-dashoffset:900;animation:dash 50s linear infinite;stroke-linecap:round;}#my-svg .edge-animation-fast{stroke-dasharray:9,5!important;stroke-dashoffset:900;animation:dash 20s linear infinite;stroke-linecap:round;}#my-svg .error-icon{fill:hsl(220.5882352941, 100%, 98.3333333333%);}#my-svg .error-text{fill:rgb(8.5000000002, 5.7500000001, 0);stroke:rgb(8.5000000002, 5.7500000001, 0);}#my-svg .edge-thickness-normal{stroke-width:1px;}#my-svg .edge-thickness-thick{stroke-width:3.5px;}#my-svg .edge-pattern-solid{stroke-dasharray:0;}#my-svg .edge-thickness-invisible{stroke-width:0;fill:none;}#my-svg .edge-pattern-dashed{stroke-dasharray:3;}#my-svg .edge-pattern-dotted{stroke-dasharray:2;}#my-svg .marker{fill:#0b0b0b;stroke:#0b0b0b;}#my-svg .marker.cross{stroke:#0b0b0b;}#my-svg svg{font-family:"trebuchet ms",verdana,arial,sans-serif;font-size:16px;}#my-svg p{margin:0;}#my-svg .node .neo-node{stroke:hsl(40.5882352941, 60%, 83.3333333333%);}#my-svg [data-look="neo"].node rect,#my-svg [data-look="neo"].cluster rect,#my-svg [data-look="neo"].node polygon{stroke:url(#my-svg-gradient);filter:drop-shadow( 1px 2px 2px rgba(185,185,185,1));}#my-svg [data-look="neo"].node path{stroke:url(#my-svg-gradient);stroke-width:1px;}#my-svg [data-look="neo"].node .outer-path{filter:drop-shadow( 1px 2px 2px rgba(185,185,185,1));}#my-svg [data-look="neo"].node .neo-line path{stroke:hsl(40.5882352941, 60%, 83.3333333333%);filter:none;}#my-svg [data-look="neo"].node circle{stroke:url(#my-svg-gradient);filter:drop-shadow( 1px 2px 2px rgba(185,185,185,1));}#my-svg [data-look="neo"].node circle .state-start{fill:#000000;}#my-svg [data-look="neo"].icon-shape .icon{fill:url(#my-svg-gradient);filter:drop-shadow( 1px 2px 2px rgba(185,185,185,1));}#my-svg [data-look="neo"].icon-shape .icon-neo path{stroke:url(#my-svg-gradient);filter:drop-shadow( 1px 2px 2px rgba(185,185,185,1));}#my-svg :root{--mermaid-font-family:"trebuchet ms",verdana,arial,sans-serif;}</style><g/><g class="main"><rect width="1800" height="900" class="background" fill="white"/><g class="chart-title"><text x="0" y="0" fill="#131300" font-size="20" dominant-baseline="middle" text-anchor="middle" transform="translate(900, 22.5) rotate(0)">ClickHouse read-endpoint query latency  ·  🟦 p50  ·  🟥 p95  ·  🟧 p99  ·  warm cache, 500 sequential runs/endpoint (cold-cache warm-up dropped)</text></g><g class="plot"><g class="line-plot-0"><path d="M108.82,627.98L185.192,334.274L261.565,122.93L337.937,593.792L414.309,655.952L490.681,649.736L567.053,637.304L643.425,641.966L719.798,643.52L796.17,652.844L872.542,654.398L948.914,621.764L1025.286,648.182L1101.658,646.628L1178.031,657.506L1254.403,652.844L1330.775,654.398L1407.147,652.844L1483.519,654.398L1559.891,655.952L1636.263,648.182L1712.636,643.52L1789.008,654.398" fill="none" stroke="#1565C0" stroke-width="2"/></g><g class="line-plot-1"><path d="M108.82,606.224L185.192,315.626L261.565,105.836L337.937,576.698L414.309,629.534L490.681,624.872L567.053,612.44L643.425,621.764L719.798,617.102L796.17,626.426L872.542,629.534L948.914,595.346L1025.286,623.318L1101.658,617.102L1178.031,631.088L1254.403,631.088L1330.775,629.534L1407.147,627.98L1483.519,632.642L1559.891,631.088L1636.263,624.872L1712.636,617.102L1789.008,631.088" fill="none" stroke="#C62828" stroke-width="2"/></g><g class="line-plot-2"><path d="M108.82,592.238L185.192,310.964L261.565,101.174L337.937,554.942L414.309,623.318L490.681,613.994L567.053,596.9L643.425,607.778L719.798,606.224L796.17,612.44L872.542,620.21L948.914,582.914L1025.286,609.332L1101.658,607.778L1178.031,621.764L1254.403,617.102L1330.775,615.548L1407.147,615.548L1483.519,610.886L1559.891,618.656L1636.263,610.886L1712.636,606.224L1789.008,618.656" fill="none" stroke="#EF6C00" stroke-width="2"/></g></g><g class="bottom-axis"><g class="axis-line"><path d="M 97.828125,838.9999980926514 L 1800,838.9999980926514" fill="none" stroke="#666" stroke-width="2"/></g><g class="label"><text x="0" y="0" fill="#131300" font-size="14" dominant-baseline="text-before-edge" text-anchor="middle" transform="translate(108.8203125, 849.9999980926514) rotate(0)">E01</text><text x="0" y="0" fill="#131300" font-size="14" dominant-baseline="text-before-edge" text-anchor="middle" transform="translate(185.1924715909091, 849.9999980926514) rotate(0)">E02</text><text x="0" y="0" fill="#131300" font-size="14" dominant-baseline="text-before-edge" text-anchor="middle" transform="translate(261.5646306818182, 849.9999980926514) rotate(0)">E03</text><text x="0" y="0" fill="#131300" font-size="14" dominant-baseline="text-before-edge" text-anchor="middle" transform="translate(337.93678977272725, 849.9999980926514) rotate(0)">E04</text><text x="0" y="0" fill="#131300" font-size="14" dominant-baseline="text-before-edge" text-anchor="middle" transform="translate(414.3089488636364, 849.9999980926514) rotate(0)">E05</text><text x="0" y="0" fill="#131300" font-size="14" dominant-baseline="text-before-edge" text-anchor="middle" transform="translate(490.6811079545455, 849.9999980926514) rotate(0)">E06</text><text x="0" y="0" fill="#131300" font-size="14" dominant-baseline="text-before-edge" text-anchor="middle" transform="translate(567.0532670454545, 849.9999980926514) rotate(0)">E07</text><text x="0" y="0" fill="#131300" font-size="14" dominant-baseline="text-before-edge" text-anchor="middle" transform="translate(643.4254261363636, 849.9999980926514) rotate(0)">E08</text><text x="0" y="0" fill="#131300" font-size="14" dominant-baseline="text-before-edge" text-anchor="middle" transform="translate(719.7975852272727, 849.9999980926514) rotate(0)">E09</text><text x="0" y="0" fill="#131300" font-size="14" dominant-baseline="text-before-edge" text-anchor="middle" transform="translate(796.1697443181819, 849.9999980926514) rotate(0)">E10</text><text x="0" y="0" fill="#131300" font-size="14" dominant-baseline="text-before-edge" text-anchor="middle" transform="translate(872.541903409091, 849.9999980926514) rotate(0)">E11</text><text x="0" y="0" fill="#131300" font-size="14" dominant-baseline="text-before-edge" text-anchor="middle" transform="translate(948.9140625, 849.9999980926514) rotate(0)">E12</text><text x="0" y="0" fill="#131300" font-size="14" dominant-baseline="text-before-edge" text-anchor="middle" transform="translate(1025.286221590909, 849.9999980926514) rotate(0)">E13</text><text x="0" y="0" fill="#131300" font-size="14" dominant-baseline="text-before-edge" text-anchor="middle" transform="translate(1101.6583806818182, 849.9999980926514) rotate(0)">E14</text><text x="0" y="0" fill="#131300" font-size="14" dominant-baseline="text-before-edge" text-anchor="middle" transform="translate(1178.0305397727273, 849.9999980926514) rotate(0)">E15</text><text x="0" y="0" fill="#131300" font-size="14" dominant-baseline="text-before-edge" text-anchor="middle" transform="translate(1254.4026988636365, 849.9999980926514) rotate(0)">E16</text><text x="0" y="0" fill="#131300" font-size="14" dominant-baseline="text-before-edge" text-anchor="middle" transform="translate(1330.7748579545455, 849.9999980926514) rotate(0)">E17</text><text x="0" y="0" fill="#131300" font-size="14" dominant-baseline="text-before-edge" text-anchor="middle" transform="translate(1407.1470170454545, 849.9999980926514) rotate(0)">E18</text><text x="0" y="0" fill="#131300" font-size="14" dominant-baseline="text-before-edge" text-anchor="middle" transform="translate(1483.5191761363637, 849.9999980926514) rotate(0)">E19</text><text x="0" y="0" fill="#131300" font-size="14" dominant-baseline="text-before-edge" text-anchor="middle" transform="translate(1559.8913352272727, 849.9999980926514) rotate(0)">E20</text><text x="0" y="0" fill="#131300" font-size="14" dominant-baseline="text-before-edge" text-anchor="middle" transform="translate(1636.263494318182, 849.9999980926514) rotate(0)">E21</text><text x="0" y="0" fill="#131300" font-size="14" dominant-baseline="text-before-edge" text-anchor="middle" transform="translate(1712.635653409091, 849.9999980926514) rotate(0)">E22</text><text x="0" y="0" fill="#131300" font-size="14" dominant-baseline="text-before-edge" text-anchor="middle" transform="translate(1789.0078125, 849.9999980926514) rotate(0)">E23</text></g><g class="ticks"><path d="M 108.8203125,839.9999980926514 L 108.8203125,844.9999980926514" fill="none" stroke="#131300" stroke-width="2"/><path d="M 185.1924715909091,839.9999980926514 L 185.1924715909091,844.9999980926514" fill="none" stroke="#131300" stroke-width="2"/><path d="M 261.5646306818182,839.9999980926514 L 261.5646306818182,844.9999980926514" fill="none" stroke="#131300" stroke-width="2"/><path d="M 337.93678977272725,839.9999980926514 L 337.93678977272725,844.9999980926514" fill="none" stroke="#131300" stroke-width="2"/><path d="M 414.3089488636364,839.9999980926514 L 414.3089488636364,844.9999980926514" fill="none" stroke="#131300" stroke-width="2"/><path d="M 490.6811079545455,839.9999980926514 L 490.6811079545455,844.9999980926514" fill="none" stroke="#131300" stroke-width="2"/><path d="M 567.0532670454545,839.9999980926514 L 567.0532670454545,844.9999980926514" fill="none" stroke="#131300" stroke-width="2"/><path d="M 643.4254261363636,839.9999980926514 L 643.4254261363636,844.9999980926514" fill="none" stroke="#131300" stroke-width="2"/><path d="M 719.7975852272727,839.9999980926514 L 719.7975852272727,844.9999980926514" fill="none" stroke="#131300" stroke-width="2"/><path d="M 796.1697443181819,839.9999980926514 L 796.1697443181819,844.9999980926514" fill="none" stroke="#131300" stroke-width="2"/><path d="M 872.541903409091,839.9999980926514 L 872.541903409091,844.9999980926514" fill="none" stroke="#131300" stroke-width="2"/><path d="M 948.9140625,839.9999980926514 L 948.9140625,844.9999980926514" fill="none" stroke="#131300" stroke-width="2"/><path d="M 1025.286221590909,839.9999980926514 L 1025.286221590909,844.9999980926514" fill="none" stroke="#131300" stroke-width="2"/><path d="M 1101.6583806818182,839.9999980926514 L 1101.6583806818182,844.9999980926514" fill="none" stroke="#131300" stroke-width="2"/><path d="M 1178.0305397727273,839.9999980926514 L 1178.0305397727273,844.9999980926514" fill="none" stroke="#131300" stroke-width="2"/><path d="M 1254.4026988636365,839.9999980926514 L 1254.4026988636365,844.9999980926514" fill="none" stroke="#131300" stroke-width="2"/><path d="M 1330.7748579545455,839.9999980926514 L 1330.7748579545455,844.9999980926514" fill="none" stroke="#131300" stroke-width="2"/><path d="M 1407.1470170454545,839.9999980926514 L 1407.1470170454545,844.9999980926514" fill="none" stroke="#131300" stroke-width="2"/><path d="M 1483.5191761363637,839.9999980926514 L 1483.5191761363637,844.9999980926514" fill="none" stroke="#131300" stroke-width="2"/><path d="M 1559.8913352272727,839.9999980926514 L 1559.8913352272727,844.9999980926514" fill="none" stroke="#131300" stroke-width="2"/><path d="M 1636.263494318182,839.9999980926514 L 1636.263494318182,844.9999980926514" fill="none" stroke="#131300" stroke-width="2"/><path d="M 1712.635653409091,839.9999980926514 L 1712.635653409091,844.9999980926514" fill="none" stroke="#131300" stroke-width="2"/><path d="M 1789.0078125,839.9999980926514 L 1789.0078125,844.9999980926514" fill="none" stroke="#131300" stroke-width="2"/></g><g class="title"><text x="0" y="0" fill="#131300" font-size="16" dominant-baseline="text-before-edge" text-anchor="middle" transform="translate(948.9140625, 876) rotate(0)">Endpoint</text></g></g><g class="left-axis"><g class="axisl-line"><path d="M 96.828125,45 L 96.828125,837.9999980926514" fill="none" stroke="#666" stroke-width="2"/></g><g class="label"><text x="0" y="0" fill="#131300" font-size="14" dominant-baseline="middle" text-anchor="end" transform="translate(85.828125, 53.000000953674316) rotate(0)">500</text><text x="0" y="0" fill="#131300" font-size="14" dominant-baseline="middle" text-anchor="end" transform="translate(85.828125, 130.70000057220457) rotate(0)">450</text><text x="0" y="0" fill="#131300" font-size="14" dominant-baseline="middle" text-anchor="end" transform="translate(85.828125, 208.40000019073483) rotate(0)">400</text><text x="0" y="0" fill="#131300" font-size="14" dominant-baseline="middle" text-anchor="end" transform="translate(85.828125, 286.09999980926517) rotate(0)">350</text><text x="0" y="0" fill="#131300" font-size="14" dominant-baseline="middle" text-anchor="end" transform="translate(85.828125, 363.7999994277954) rotate(0)">300</text><text x="0" y="0" fill="#131300" font-size="14" dominant-baseline="middle" text-anchor="end" transform="translate(85.828125, 441.4999990463257) rotate(0)">250</text><text x="0" y="0" fill="#131300" font-size="14" dominant-baseline="middle" text-anchor="end" transform="translate(85.828125, 519.1999986648559) rotate(0)">200</text><text x="0" y="0" fill="#131300" font-size="14" dominant-baseline="middle" text-anchor="end" transform="translate(85.828125, 596.8999982833863) rotate(0)">150</text><text x="0" y="0" fill="#131300" font-size="14" dominant-baseline="middle" text-anchor="end" transform="translate(85.828125, 674.5999979019165) rotate(0)">100</text><text x="0" y="0" fill="#131300" font-size="14" dominant-baseline="middle" text-anchor="end" transform="translate(85.828125, 752.2999975204468) rotate(0)">50</text><text x="0" y="0" fill="#131300" font-size="14" dominant-baseline="middle" text-anchor="end" transform="translate(85.828125, 829.999997138977) rotate(0)">0</text></g><g class="ticks"><path d="M 95.828125,53.000000953674316 L 90.828125,53.000000953674316" fill="none" stroke="#131300" stroke-width="2"/><path d="M 95.828125,130.70000057220457 L 90.828125,130.70000057220457" fill="none" stroke="#131300" stroke-width="2"/><path d="M 95.828125,208.40000019073483 L 90.828125,208.40000019073483" fill="none" stroke="#131300" stroke-width="2"/><path d="M 95.828125,286.09999980926517 L 90.828125,286.09999980926517" fill="none" stroke="#131300" stroke-width="2"/><path d="M 95.828125,363.7999994277954 L 90.828125,363.7999994277954" fill="none" stroke="#131300" stroke-width="2"/><path d="M 95.828125,441.4999990463257 L 90.828125,441.4999990463257" fill="none" stroke="#131300" stroke-width="2"/><path d="M 95.828125,519.1999986648559 L 90.828125,519.1999986648559" fill="none" stroke="#131300" stroke-width="2"/><path d="M 95.828125,596.8999982833863 L 90.828125,596.8999982833863" fill="none" stroke="#131300" stroke-width="2"/><path d="M 95.828125,674.5999979019165 L 90.828125,674.5999979019165" fill="none" stroke="#131300" stroke-width="2"/><path d="M 95.828125,752.2999975204468 L 90.828125,752.2999975204468" fill="none" stroke="#131300" stroke-width="2"/><path d="M 95.828125,829.999997138977 L 90.828125,829.999997138977" fill="none" stroke="#131300" stroke-width="2"/></g><g class="title"><text x="0" y="0" fill="#131300" font-size="16" dominant-baseline="text-before-edge" text-anchor="middle" transform="translate(20, 441.4999990463257) rotate(270)">Query execution time (ms)</text></g></g></g><g class="mermaid-tmp-group"/></svg>